# xmcd
#
# Track frame offsets: 
#        150
#        8503
#        23320
#        40049
#        58874
#        73026
#        81426
#        92853
#        103428
#        117376
#        137852
#
# Disc length: 2072 seconds
#
# Revision: 0
# Processed by: cddbd v1.5.2PL0 Copyright (c) Steve Scherf et al.
# Submitted via: ExactAudioCopy v1.0b1
#
DISCID=9108160b
DTITLE=Noelle Hampton - Jazz Up Your Country Christmas
DYEAR=2001
DGENRE=Country
TTITLE0=Here Comes Santa Claus
TTITLE1=Ill Be Home For Christmas
TTITLE2=It Came Upon A Midnight Clear
TTITLE3=Have Yourself A Merry Little Christmas
TTITLE4=God Rest Ye Merry Gentlemen
TTITLE5=The First Noel
TTITLE6=White Christmas
TTITLE7=The Christmas Song
TTITLE8=All Through The Night
TTITLE9=Silent Night
TTITLE10=Christmas Time
EXTD=
EXTT0=
EXTT1=
EXTT2=
EXTT3=
EXTT4=
EXTT5=
EXTT6=
EXTT7=
EXTT8=
EXTT9=
EXTT10=
PLAYORDER=
